<?xml version="1.0" encoding="utf-8"?>
<!-- Generator: Adobe Illustrator 19.2.0, SVG Export Plug-In . SVG Version: 6.00 Build 0)  -->
<svg version="1.1" id="Слой_1" xmlns="http://www.w3.org/2000/svg" xmlns:xlink="http://www.w3.org/1999/xlink" x="0px" y="0px"
	 viewBox="0 0 581.2 172" style="enable-background:new 0 0 581.2 172;" xml:space="preserve">
<style type="text/css">
	.st0{fill:#676A6A;}
	.st1{fill:#2E67B2;}
	.st2{fill:#181C1E;}
</style>
<polygon class="st0" points="0.8,171.9 0.8,143.9 5,143.9 5,168.6 20.3,168.6 20.3,171.9 "/>
<polygon class="st0" points="37.8,171.9 37.8,143.9 60.4,143.9 60.4,147.2 41.9,147.2 41.9,155.8 59.2,155.8 59.2,159.1 41.9,159.1 
	41.9,168.6 61.1,168.6 61.1,171.9 "/>
<g>
	<path class="st0" d="M75.9,171.9l12-28h4.4l12.8,28h-4.7l-3.6-8.5H83.7l-3.4,8.5H75.9z M84.9,160.4h10.6l-3.3-7.8
		c-1-2.4-1.7-4.3-2.2-5.8c-0.4,1.8-1,3.6-1.7,5.3L84.9,160.4z"/>
	<path class="st0" d="M120.8,171.9v-28h10.8c2.4,0,4.3,0.1,5.6,0.4c1.8,0.4,3.3,1,4.6,2c1.6,1.2,2.9,2.8,3.7,4.8
		c0.8,1.9,1.2,4.2,1.2,6.7c0,2.1-0.3,4-0.8,5.7c-0.6,1.6-1.3,3-2.1,4.1c-0.9,1.1-1.8,1.9-2.8,2.5s-2.3,1.1-3.7,1.4
		c-1.5,0.3-3.1,0.5-5,0.5h-11.5V171.9z M125,168.6h6.7c2.1,0,3.7-0.2,4.8-0.5c1.2-0.3,2.1-0.8,2.8-1.5c1-0.9,1.7-2.1,2.3-3.5
		c0.5-1.5,0.8-3.3,0.8-5.4c0-2.9-0.5-5.2-1.6-6.8c-1.1-1.6-2.4-2.6-3.9-3.2c-1.1-0.4-2.9-0.6-5.3-0.6H125L125,168.6L125,168.6z"/>
	<polygon class="st0" points="196.5,171.9 196.5,147.2 186.2,147.2 186.2,143.9 211,143.9 211,147.2 200.7,147.2 200.7,171.9 	"/>
	<polygon class="st0" points="227.8,171.9 227.8,143.9 231.9,143.9 231.9,155.4 248.2,155.4 248.2,143.9 252.3,143.9 252.3,171.9 
		248.2,171.9 248.2,158.7 231.9,158.7 231.9,171.9 	"/>
	<polygon class="st0" points="271.7,171.9 271.7,143.9 294.3,143.9 294.3,147.2 275.9,147.2 275.9,155.8 293.1,155.8 293.1,159.1 
		275.9,159.1 275.9,168.6 295,168.6 295,171.9 	"/>
	<path class="st0" d="M337.7,171.9v-28h6.2l7.4,19.8c0.7,1.8,1.2,3.2,1.5,4.1c0.4-1,0.9-2.5,1.7-4.5l7.5-19.5h5.6v28h-4v-23.4
		l-9.1,23.4h-3.7l-9-23.8v23.8h-4.1V171.9z"/>
	<path class="st0" d="M383.1,171.9l12-28h4.5l12.8,28h-4.7l-3.6-8.5H391l-3.4,8.5H383.1z M392.2,160.4h10.6l-3.3-7.8
		c-1-2.4-1.7-4.3-2.2-5.8c-0.4,1.8-1,3.6-1.7,5.3L392.2,160.4z"/>
	<path class="st0" d="M428.2,171.9v-28H442c2.8,0,4.9,0.3,6.3,0.8c1.4,0.5,2.6,1.4,3.5,2.7c0.9,1.3,1.3,2.7,1.3,4.2
		c0,2-0.7,3.7-2.1,5c-1.4,1.4-3.6,2.2-6.6,2.6c1.1,0.5,1.9,0.9,2.5,1.4c1.2,1,2.3,2.2,3.4,3.7l5.4,7.6h-5.2l-4.1-5.8
		c-1.2-1.7-2.2-3-3-3.9s-1.5-1.5-2.1-1.9s-1.2-0.6-1.9-0.7c-0.5-0.1-1.2-0.1-2.3-0.1h-4.8v12.4L428.2,171.9L428.2,171.9z
		 M432.3,156.3h8.9c1.9,0,3.4-0.2,4.4-0.5c1.1-0.4,1.9-0.9,2.4-1.7c0.6-0.8,0.8-1.6,0.8-2.5c0-1.3-0.5-2.4-1.6-3.3s-2.8-1.3-5.1-1.3
		h-9.9L432.3,156.3L432.3,156.3z"/>
	<polygon class="st0" points="471.9,171.9 471.9,143.9 476,143.9 476,157.8 491.5,143.9 497.1,143.9 484.1,155.3 497.7,171.9 
		492.3,171.9 481.2,157.7 476,162.2 476,171.9 	"/>
	<polygon class="st0" points="513.7,171.9 513.7,143.9 536.3,143.9 536.3,147.2 517.9,147.2 517.9,155.8 535.1,155.8 535.1,159.1 
		517.9,159.1 517.9,168.6 537,168.6 537,171.9 	"/>
	<polygon class="st0" points="563.1,171.9 563.1,147.2 552.8,147.2 552.8,143.9 577.6,143.9 577.6,147.2 567.3,147.2 567.3,171.9 	
		"/>
	<polygon class="st1" points="0,123.4 32.3,77.4 1.4,34 30.2,34 46.1,58.6 62.7,34 90.5,34 60.2,76.4 93.3,123.4 64.2,123.4 
		46.1,95.7 27.7,123.4 	"/>
	<path class="st2" d="M107.3,0h45.5c10.3,0,18.1,0.8,23.5,2.4c7.2,2.1,13.4,5.9,18.6,11.4c5.2,5.4,9.1,12.1,11.8,20
		c2.7,7.9,4,17.6,4,29.2c0,10.2-1.3,18.9-3.8,26.2c-3.1,9-7.5,16.2-13.2,21.8c-4.3,4.2-10.2,7.5-17.5,9.8c-5.5,1.7-12.8,2.6-22,2.6
		h-46.9L107.3,0L107.3,0z M132.2,20.9v81.7h18.6c7,0,12-0.4,15.1-1.2c4-1,7.4-2.7,10.1-5.1s4.8-6.4,6.5-11.9s2.5-13.1,2.5-22.6
		s-0.8-16.9-2.5-22s-4-9.1-7.1-11.9c-3-2.9-6.9-4.8-11.5-5.8c-3.5-0.8-10.3-1.2-20.4-1.2L132.2,20.9L132.2,20.9z"/>
	<path class="st2" d="M231.6,0h23.6v21.9h-23.6V0z M231.6,34h23.6v89.3h-23.6V34z"/>
	<path class="st2" d="M302.1,123.4h-23.6V34h22v12.7c3.8-6,7.1-10,10.1-11.9s6.4-2.9,10.2-2.9c5.4,0,10.6,1.5,15.6,4.5L329.1,57
		c-4-2.6-7.7-3.9-11.1-3.9c-3.3,0-6.1,0.9-8.4,2.7c-2.3,1.8-4.1,5.1-5.4,9.9s-2,14.8-2,30v27.7H302.1z"/>
	<path class="st2" d="M398.3,94.9l23.6,4c-3,8.6-7.8,15.2-14.3,19.7s-14.7,6.8-24.5,6.8c-15.5,0-27-5.1-34.5-15.2
		c-5.9-8.1-8.8-18.4-8.8-30.8c0-14.8,3.9-26.4,11.6-34.8c7.7-8.4,17.5-12.6,29.4-12.6c13.3,0,23.8,4.4,31.5,13.2
		c7.7,8.8,11.4,22.2,11,40.3h-59.2c0.2,7,2.1,12.5,5.7,16.4s8.2,5.8,13.6,5.8c3.7,0,6.8-1,9.3-3C395.1,102.7,397,99.4,398.3,94.9
		 M399.7,71.1c-0.2-6.8-1.9-12-5.3-15.6c-3.4-3.6-7.5-5.3-12.3-5.3c-5.2,0-9.4,1.9-12.8,5.6c-3.4,3.8-5,8.9-5,15.3H399.7z"/>
	<path class="st2" d="M520.3,60.5L497,64.7c-0.8-4.7-2.6-8.2-5.3-10.5c-2.8-2.4-6.4-3.5-10.8-3.5c-5.9,0-10.6,2-14.1,6.1
		s-5.3,10.9-5.3,20.4c0,10.6,1.8,18.1,5.3,22.5s8.3,6.6,14.3,6.6c4.5,0,8.2-1.3,11-3.8c2.9-2.6,4.9-6.9,6.1-13.2l23.2,4
		c-2.4,10.7-7,18.7-13.9,24.1c-6.8,5.4-16,8.2-27.5,8.2c-13.1,0-23.5-4.1-31.3-12.4C440.9,105,437,93.5,437,79
		c0-14.8,3.9-26.2,11.7-34.5c7.8-8.2,18.3-12.3,31.6-12.3c10.9,0,19.5,2.3,26,7C512.9,43.7,517.5,50.9,520.3,60.5"/>
	<path class="st2" d="M579,34.1v18.5h-16.2V89c0,7.3,0.5,11.5,0.8,12.7s1,2.2,2.1,3s2.4,1.2,4,1.2c2.2,0,5.4-0.8,9.5-2.3l2,18.3
		c-5.5,2.4-11.7,3.5-18.7,3.5c-4.3,0-8.1-0.7-11.5-2.1s-5.9-3.3-7.5-5.6c-1.6-2.3-2.7-5.3-3.3-9.2c-0.5-2.7-0.5-8.1-0.5-16.4V52.7
		h-10.8V34.2h10.8v-17l23.2-7v23.9H579z"/>
</g>
</svg>
